<svg width="128" height="128" viewBox="0 0 128 128" fill="none" xmlns="http://www.w3.org/2000/svg">
<path fill-rule="evenodd" clip-rule="evenodd" d="M47 64C47 61.2386 44.7614 59 42 59C39.2386 59 37 61.2386 37 64C37 66.7614 39.2386 69 42 69C44.7614 69 47 66.7614 47 64ZM67 64C67 61.7909 65.2091 60 63 60C60.7909 60 59 61.7909 59 64C59 66.2091 60.7909 68 63 68C65.2091 68 67 66.2091 67 64ZM68 64C68 61.2386 65.7614 59 63 59C60.2386 59 58 61.2386 58 64C58 66.7614 60.2386 69 63 69C65.7614 69 68 66.7614 68 64ZM89 64C89 61.7909 87.2091 60 85 60C82.7909 60 81 61.7909 81 64C81 66.2091 82.7909 68 85 68C87.2091 68 89 66.2091 89 64ZM90 64C90 61.2386 87.7614 59 85 59C82.2386 59 80 61.2386 80 64C80 66.7614 82.2386 69 85 69C87.7614 69 90 66.7614 90 64Z" fill="#4545EE"/>
</svg>
