<svg width="24" height="24" viewBox="0 0 24 24" fill="none" xmlns="http://www.w3.org/2000/svg">
<circle cx="12" cy="12" r="12" fill="#4545EE"/>
<g clip-path="url(#clip0_85_8376)">
<path fill-rule="evenodd" clip-rule="evenodd" d="M11.9787 8.5C12.9013 8.5 13.6579 9.31605 13.6579 10.1386C13.6579 10.5865 13.4362 11.1143 13.0852 11.5022C13.6559 11.7626 14.2536 12.1717 14.6139 12.6429C15.1921 13.3988 15.0898 13.8144 15.0898 14.5322C15.0898 16.0216 9.06844 16.0199 9.01248 14.5322C8.98568 13.8197 8.95537 13.4353 9.46158 12.6884C9.78815 12.2065 10.3525 11.7856 10.9025 11.516C10.5441 11.1275 10.3168 10.5921 10.3168 10.1386C10.3168 9.31605 11.0561 8.5 11.9787 8.5Z" stroke="#F5F5FD" stroke-linecap="round" stroke-linejoin="round"/>
</g>
<defs>
<clipPath id="clip0_85_8376">
<rect width="12" height="12" fill="white" transform="translate(6 6)"/>
</clipPath>
</defs>
</svg>
