<svg width="88" height="88" viewBox="0 0 88 88" fill="none" xmlns="http://www.w3.org/2000/svg">
<g filter="url(#filter0_d_86_9084)">
<circle cx="44" cy="40" r="36" fill="#60ECA0"/>
</g>
<g clip-path="url(#clip0_86_9084)">
<path d="M24.1553 33.8447H33.5113M46.7383 23.1033C50.7363 23.1033 54.0148 26.6395 54.0148 30.2039C54.0148 32.1446 53.054 34.4319 51.5334 36.113C54.0063 37.2411 56.5962 39.0141 58.1578 41.0559C60.663 44.3315 60.2197 46.1322 60.2197 49.2429C60.2197 55.6968 34.1273 55.6895 33.8848 49.2429C33.7686 46.1552 33.6373 44.4896 35.8309 41.2529C37.246 39.1648 39.6917 37.3408 42.0747 36.1724C40.5218 34.4891 39.5368 32.1688 39.5368 30.2039C39.5368 26.6395 42.7403 23.1033 46.7383 23.1033ZM28.8333 29.1666V38.5227V29.1666Z" stroke="#F5F5FD" stroke-width="1.5" stroke-linecap="round" stroke-linejoin="round"/>
</g>
<defs>
<filter id="filter0_d_86_9084" x="0" y="0" width="88" height="88" filterUnits="userSpaceOnUse" color-interpolation-filters="sRGB">
<feFlood flood-opacity="0" result="BackgroundImageFix"/>
<feColorMatrix in="SourceAlpha" type="matrix" values="0 0 0 0 0 0 0 0 0 0 0 0 0 0 0 0 0 0 127 0" result="hardAlpha"/>
<feOffset dy="4"/>
<feGaussianBlur stdDeviation="4"/>
<feComposite in2="hardAlpha" operator="out"/>
<feColorMatrix type="matrix" values="0 0 0 0 0.376471 0 0 0 0 0.92549 0 0 0 0 0.627451 0 0 0 0.4 0"/>
<feBlend mode="normal" in2="BackgroundImageFix" result="effect1_dropShadow_86_9084"/>
<feBlend mode="normal" in="SourceGraphic" in2="effect1_dropShadow_86_9084" result="shape"/>
</filter>
<clipPath id="clip0_86_9084">
<rect width="52" height="52" fill="white" transform="translate(18 14)"/>
</clipPath>
</defs>
</svg>
