<svg width="44" height="44" viewBox="0 0 44 44" fill="none" xmlns="http://www.w3.org/2000/svg">
<g clip-path="url(#clip0_81_8609)">
<path fill-rule="evenodd" clip-rule="evenodd" d="M21.5881 11.3696C24.6936 11.3696 27.2402 14.1525 27.2402 16.9576C27.2402 18.4849 26.4939 20.2849 25.3128 21.6079C27.2336 22.4957 29.2453 23.891 30.4583 25.4978C32.4043 28.0757 32.0599 29.4928 32.0599 31.9407C32.0599 37.0198 11.7924 37.014 11.604 31.9407C11.5138 29.5108 11.4118 28.2001 13.1157 25.6529C14.2149 24.0096 16.1146 22.5742 17.9656 21.6546C16.7594 20.3299 15.9943 18.504 15.9943 16.9576C15.9943 14.1525 18.4826 11.3696 21.5881 11.3696Z" stroke="#8686F9" stroke-width="1.5" stroke-linecap="round" stroke-linejoin="round"/>
<path d="M13.75 11C11.193 11 9.44112 13.7476 9.44112 15.7496C9.44112 17.1593 9.7346 18.7592 10.7072 19.9804C9.12555 20.7998 7.46911 22.0877 6.47036 23.5708C4.86807 25.9502 5.15161 28.6095 5.15161 29.4054C5.15161 30.5626 6.15911 31.4341 7.67673 32.02" stroke="#8686F9" stroke-width="1.5" stroke-linecap="round" stroke-linejoin="round"/>
<path d="M29.8833 11C32.4403 11 34.1922 13.7476 34.1922 15.7496C34.1922 17.1593 33.8987 18.7592 32.9261 19.9804C34.5078 20.7998 36.1642 22.0877 37.1629 23.5708C38.7652 25.9502 38.4817 28.6095 38.4817 29.4054C38.4817 30.5626 37.4742 31.4341 35.9566 32.02" stroke="#8686F9" stroke-width="1.5" stroke-linecap="round" stroke-linejoin="round"/>
</g>
<defs>
<clipPath id="clip0_81_8609">
<rect width="44" height="44" fill="white"/>
</clipPath>
</defs>
</svg>
