<svg width="40" height="40" viewBox="0 0 40 40" fill="none" xmlns="http://www.w3.org/2000/svg">
<g filter="url(#filter0_d_81_8682)">
<circle cx="20" cy="16" r="12" fill="#F5F5FD"/>
</g>
<g clip-path="url(#clip0_81_8682)">
<path fill-rule="evenodd" clip-rule="evenodd" d="M19.9787 12.5C20.9013 12.5 21.6579 13.316 21.6579 14.1386C21.6579 14.5865 21.4362 15.1143 21.0852 15.5022C21.6559 15.7626 22.2536 16.1717 22.6139 16.6429C23.1921 17.3988 23.0898 17.8144 23.0898 18.5322C23.0898 20.0216 17.0684 20.0199 17.0125 18.5322C16.9857 17.8197 16.9554 17.4353 17.4616 16.6884C17.7882 16.2065 18.3525 15.7856 18.9025 15.516C18.5441 15.1275 18.3168 14.5921 18.3168 14.1386C18.3168 13.316 19.0561 12.5 19.9787 12.5Z" stroke="#4545EE" stroke-linecap="round" stroke-linejoin="round"/>
</g>
<defs>
<filter id="filter0_d_81_8682" x="0" y="0" width="40" height="40" filterUnits="userSpaceOnUse" color-interpolation-filters="sRGB">
<feFlood flood-opacity="0" result="BackgroundImageFix"/>
<feColorMatrix in="SourceAlpha" type="matrix" values="0 0 0 0 0 0 0 0 0 0 0 0 0 0 0 0 0 0 127 0" result="hardAlpha"/>
<feOffset dy="4"/>
<feGaussianBlur stdDeviation="4"/>
<feComposite in2="hardAlpha" operator="out"/>
<feColorMatrix type="matrix" values="0 0 0 0 0.270588 0 0 0 0 0.270588 0 0 0 0 0.933333 0 0 0 0.4 0"/>
<feBlend mode="normal" in2="BackgroundImageFix" result="effect1_dropShadow_81_8682"/>
<feBlend mode="normal" in="SourceGraphic" in2="effect1_dropShadow_81_8682" result="shape"/>
</filter>
<clipPath id="clip0_81_8682">
<rect width="12" height="12" fill="white" transform="translate(14 10)"/>
</clipPath>
</defs>
</svg>
