<svg width="44" height="44" viewBox="0 0 44 44" fill="none" xmlns="http://www.w3.org/2000/svg">
<g clip-path="url(#clip0_81_8623)">
<path d="M22 31.1665H34.8333M11 31.1665H14.6485H11Z" stroke="#8686F9" stroke-width="1.5" stroke-linecap="round" stroke-linejoin="round"/>
<path d="M31.2024 22H34.8333M11 22H23.5406H11Z" stroke="#8686F9" stroke-width="1.5" stroke-linecap="round" stroke-linejoin="round"/>
<path d="M21.9929 12.833H34.8333M11 12.833H14.6479H11Z" stroke="#8686F9" stroke-width="1.5" stroke-linecap="round" stroke-linejoin="round"/>
<path d="M18.3334 16.4998C20.3585 16.4998 22.0001 14.8582 22.0001 12.8332C22.0001 10.8081 20.3585 9.1665 18.3334 9.1665C16.3084 9.1665 14.6667 10.8081 14.6667 12.8332C14.6667 14.8582 16.3084 16.4998 18.3334 16.4998Z" stroke="#8686F9" stroke-width="1.5"/>
<path d="M27.4999 25.6663C29.525 25.6663 31.1666 24.0247 31.1666 21.9997C31.1666 19.9746 29.525 18.333 27.4999 18.333C25.4749 18.333 23.8333 19.9746 23.8333 21.9997C23.8333 24.0247 25.4749 25.6663 27.4999 25.6663Z" stroke="#8686F9" stroke-width="1.5"/>
<path d="M18.3334 34.8333C20.3585 34.8333 22.0001 33.1917 22.0001 31.1667C22.0001 29.1416 20.3585 27.5 18.3334 27.5C16.3084 27.5 14.6667 29.1416 14.6667 31.1667C14.6667 33.1917 16.3084 34.8333 18.3334 34.8333Z" stroke="#8686F9" stroke-width="1.5"/>
</g>
<defs>
<clipPath id="clip0_81_8623">
<rect width="44" height="44" fill="white"/>
</clipPath>
</defs>
</svg>
